<mxfile host="www.draw.io" modified="2019-11-16T16:14:37.916Z" agent="Mozilla/5.0 (Windows NT 10.0; Win64; x64) AppleWebKit/537.36 (KHTML, like Gecko) Chrome/78.0.3904.97 Safari/537.36" etag="mKcmdcgJbjC1pBotXQRT" version="12.2.6" type="github" pages="1">
  <diagram id="OZSkc5lJ78yHWUe4rdYH" name="Page-1">
    <mxGraphModel dx="1250" dy="1643" grid="1" gridSize="10" guides="1" tooltips="1" connect="1" arrows="1" fold="1" page="1" pageScale="1" pageWidth="827" pageHeight="1169" background="#ffffff" math="0" shadow="0">
      <root>
        <mxCell id="0"/>
        <mxCell id="1" parent="0"/>
        <mxCell id="a3olKOZ7SvC5_uw2MJjs-1" value="Cidade" style="swimlane;fontStyle=1;align=center;verticalAlign=top;childLayout=stackLayout;horizontal=1;startSize=26;horizontalStack=0;resizeParent=1;resizeParentMax=0;resizeLast=0;collapsible=1;marginBottom=0;" parent="1" vertex="1">
          <mxGeometry x="-770" y="-850" width="160" height="78" as="geometry"/>
        </mxCell>
        <mxCell id="a3olKOZ7SvC5_uw2MJjs-2" value="+ x: Float&#xa;+ y: Float" style="text;strokeColor=none;fillColor=none;align=left;verticalAlign=top;spacingLeft=4;spacingRight=4;overflow=hidden;rotatable=0;points=[[0,0.5],[1,0.5]];portConstraint=eastwest;" parent="a3olKOZ7SvC5_uw2MJjs-1" vertex="1">
          <mxGeometry y="26" width="160" height="44" as="geometry"/>
        </mxCell>
        <mxCell id="a3olKOZ7SvC5_uw2MJjs-3" value="" style="line;strokeWidth=1;fillColor=none;align=left;verticalAlign=middle;spacingTop=-1;spacingLeft=3;spacingRight=3;rotatable=0;labelPosition=right;points=[];portConstraint=eastwest;" parent="a3olKOZ7SvC5_uw2MJjs-1" vertex="1">
          <mxGeometry y="70" width="160" height="8" as="geometry"/>
        </mxCell>
        <mxCell id="a3olKOZ7SvC5_uw2MJjs-21" style="edgeStyle=orthogonalEdgeStyle;rounded=0;orthogonalLoop=1;jettySize=auto;html=1;" parent="1" source="a3olKOZ7SvC5_uw2MJjs-5" target="a3olKOZ7SvC5_uw2MJjs-13" edge="1">
          <mxGeometry relative="1" as="geometry"/>
        </mxCell>
        <mxCell id="a3olKOZ7SvC5_uw2MJjs-5" value="Algorítimo Genético" style="swimlane;fontStyle=1;align=center;verticalAlign=top;childLayout=stackLayout;horizontal=1;startSize=26;horizontalStack=0;resizeParent=1;resizeParentMax=0;resizeLast=0;collapsible=1;marginBottom=0;" parent="1" vertex="1">
          <mxGeometry x="-530" y="-1140" width="160" height="238" as="geometry"/>
        </mxCell>
        <mxCell id="a3olKOZ7SvC5_uw2MJjs-6" value="+ numFilhos: int&#xa;+ numGeracao: int&#xa;+ familia: Familia&#xa;+ dados: Cidades&#xa;+ statusGeracao: int&#xa;+ statusMutacao: int" style="text;strokeColor=none;fillColor=none;align=left;verticalAlign=top;spacingLeft=4;spacingRight=4;overflow=hidden;rotatable=0;points=[[0,0.5],[1,0.5]];portConstraint=eastwest;" parent="a3olKOZ7SvC5_uw2MJjs-5" vertex="1">
          <mxGeometry y="26" width="160" height="94" as="geometry"/>
        </mxCell>
        <mxCell id="a3olKOZ7SvC5_uw2MJjs-7" value="" style="line;strokeWidth=1;fillColor=none;align=left;verticalAlign=middle;spacingTop=-1;spacingLeft=3;spacingRight=3;rotatable=0;labelPosition=right;points=[];portConstraint=eastwest;" parent="a3olKOZ7SvC5_uw2MJjs-5" vertex="1">
          <mxGeometry y="120" width="160" height="8" as="geometry"/>
        </mxCell>
        <mxCell id="a3olKOZ7SvC5_uw2MJjs-8" value="+ primeiraGer()&#xa;+ fitness()&#xa;+ roletaNL()&#xa;+ crossoverLista()&#xa;+ mutaçãoAleatoria&#xa;+ elitismo()&#xa;+ checkParada()" style="text;strokeColor=none;fillColor=none;align=left;verticalAlign=top;spacingLeft=4;spacingRight=4;overflow=hidden;rotatable=0;points=[[0,0.5],[1,0.5]];portConstraint=eastwest;" parent="a3olKOZ7SvC5_uw2MJjs-5" vertex="1">
          <mxGeometry y="128" width="160" height="110" as="geometry"/>
        </mxCell>
        <mxCell id="a3olKOZ7SvC5_uw2MJjs-23" style="edgeStyle=orthogonalEdgeStyle;rounded=0;orthogonalLoop=1;jettySize=auto;html=1;entryX=0.5;entryY=0;entryDx=0;entryDy=0;" parent="1" source="a3olKOZ7SvC5_uw2MJjs-9" target="a3olKOZ7SvC5_uw2MJjs-1" edge="1">
          <mxGeometry relative="1" as="geometry"/>
        </mxCell>
        <mxCell id="a3olKOZ7SvC5_uw2MJjs-9" value="Cidades" style="swimlane;fontStyle=1;align=center;verticalAlign=top;childLayout=stackLayout;horizontal=1;startSize=26;horizontalStack=0;resizeParent=1;resizeParentMax=0;resizeLast=0;collapsible=1;marginBottom=0;" parent="1" vertex="1">
          <mxGeometry x="-770" y="-1030" width="160" height="160" as="geometry"/>
        </mxCell>
        <mxCell id="a3olKOZ7SvC5_uw2MJjs-10" value="+ cidade: Cidade[]&#xa;+ matrizDIst: float[]" style="text;strokeColor=none;fillColor=none;align=left;verticalAlign=top;spacingLeft=4;spacingRight=4;overflow=hidden;rotatable=0;points=[[0,0.5],[1,0.5]];portConstraint=eastwest;" parent="a3olKOZ7SvC5_uw2MJjs-9" vertex="1">
          <mxGeometry y="26" width="160" height="34" as="geometry"/>
        </mxCell>
        <mxCell id="a3olKOZ7SvC5_uw2MJjs-11" value="" style="line;strokeWidth=1;fillColor=none;align=left;verticalAlign=middle;spacingTop=-1;spacingLeft=3;spacingRight=3;rotatable=0;labelPosition=right;points=[];portConstraint=eastwest;" parent="a3olKOZ7SvC5_uw2MJjs-9" vertex="1">
          <mxGeometry y="60" width="160" height="8" as="geometry"/>
        </mxCell>
        <mxCell id="a3olKOZ7SvC5_uw2MJjs-12" value="+ lerArq():&#xa;+ aleatorio():&#xa;+ construirMatriz():&#xa;+ euclidiana():&#xa;+ calcDistTotal():" style="text;strokeColor=none;fillColor=none;align=left;verticalAlign=top;spacingLeft=4;spacingRight=4;overflow=hidden;rotatable=0;points=[[0,0.5],[1,0.5]];portConstraint=eastwest;" parent="a3olKOZ7SvC5_uw2MJjs-9" vertex="1">
          <mxGeometry y="68" width="160" height="92" as="geometry"/>
        </mxCell>
        <mxCell id="a3olKOZ7SvC5_uw2MJjs-22" style="edgeStyle=orthogonalEdgeStyle;rounded=0;orthogonalLoop=1;jettySize=auto;html=1;entryX=0.5;entryY=0;entryDx=0;entryDy=0;" parent="1" source="a3olKOZ7SvC5_uw2MJjs-13" target="a3olKOZ7SvC5_uw2MJjs-17" edge="1">
          <mxGeometry relative="1" as="geometry"/>
        </mxCell>
        <mxCell id="a3olKOZ7SvC5_uw2MJjs-13" value="Família" style="swimlane;fontStyle=1;align=center;verticalAlign=top;childLayout=stackLayout;horizontal=1;startSize=26;horizontalStack=0;resizeParent=1;resizeParentMax=0;resizeLast=0;collapsible=1;marginBottom=0;" parent="1" vertex="1">
          <mxGeometry x="-530" y="-890" width="160" height="86" as="geometry"/>
        </mxCell>
        <mxCell id="a3olKOZ7SvC5_uw2MJjs-14" value="+ filhos: Filho[]" style="text;strokeColor=none;fillColor=none;align=left;verticalAlign=top;spacingLeft=4;spacingRight=4;overflow=hidden;rotatable=0;points=[[0,0.5],[1,0.5]];portConstraint=eastwest;" parent="a3olKOZ7SvC5_uw2MJjs-13" vertex="1">
          <mxGeometry y="26" width="160" height="26" as="geometry"/>
        </mxCell>
        <mxCell id="a3olKOZ7SvC5_uw2MJjs-15" value="" style="line;strokeWidth=1;fillColor=none;align=left;verticalAlign=middle;spacingTop=-1;spacingLeft=3;spacingRight=3;rotatable=0;labelPosition=right;points=[];portConstraint=eastwest;" parent="a3olKOZ7SvC5_uw2MJjs-13" vertex="1">
          <mxGeometry y="52" width="160" height="8" as="geometry"/>
        </mxCell>
        <mxCell id="a3olKOZ7SvC5_uw2MJjs-16" value="+ ordenarFilhos()" style="text;strokeColor=none;fillColor=none;align=left;verticalAlign=top;spacingLeft=4;spacingRight=4;overflow=hidden;rotatable=0;points=[[0,0.5],[1,0.5]];portConstraint=eastwest;" parent="a3olKOZ7SvC5_uw2MJjs-13" vertex="1">
          <mxGeometry y="60" width="160" height="26" as="geometry"/>
        </mxCell>
        <mxCell id="a3olKOZ7SvC5_uw2MJjs-17" value="Filho" style="swimlane;fontStyle=1;align=center;verticalAlign=top;childLayout=stackLayout;horizontal=1;startSize=26;horizontalStack=0;resizeParent=1;resizeParentMax=0;resizeLast=0;collapsible=1;marginBottom=0;" parent="1" vertex="1">
          <mxGeometry x="-530" y="-780" width="160" height="78" as="geometry"/>
        </mxCell>
        <mxCell id="a3olKOZ7SvC5_uw2MJjs-18" value="+ ordemCidades: list&#xa;+ distTotal: float" style="text;strokeColor=none;fillColor=none;align=left;verticalAlign=top;spacingLeft=4;spacingRight=4;overflow=hidden;rotatable=0;points=[[0,0.5],[1,0.5]];portConstraint=eastwest;" parent="a3olKOZ7SvC5_uw2MJjs-17" vertex="1">
          <mxGeometry y="26" width="160" height="44" as="geometry"/>
        </mxCell>
        <mxCell id="a3olKOZ7SvC5_uw2MJjs-19" value="" style="line;strokeWidth=1;fillColor=none;align=left;verticalAlign=middle;spacingTop=-1;spacingLeft=3;spacingRight=3;rotatable=0;labelPosition=right;points=[];portConstraint=eastwest;" parent="a3olKOZ7SvC5_uw2MJjs-17" vertex="1">
          <mxGeometry y="70" width="160" height="8" as="geometry"/>
        </mxCell>
        <mxCell id="vwkqHk4NuUzMl0znaxjw-1" style="edgeStyle=orthogonalEdgeStyle;rounded=0;orthogonalLoop=1;jettySize=auto;html=1;entryX=0.5;entryY=0;entryDx=0;entryDy=0;" parent="1" source="a3olKOZ7SvC5_uw2MJjs-6" target="a3olKOZ7SvC5_uw2MJjs-9" edge="1">
          <mxGeometry relative="1" as="geometry"/>
        </mxCell>
        <mxCell id="YN_en-C7gzWS0vhUAHaR-1" style="edgeStyle=orthogonalEdgeStyle;rounded=0;orthogonalLoop=1;jettySize=auto;html=1;entryX=1;entryY=0.674;entryDx=0;entryDy=0;entryPerimeter=0;" edge="1" parent="1" source="a3olKOZ7SvC5_uw2MJjs-18" target="a3olKOZ7SvC5_uw2MJjs-12">
          <mxGeometry relative="1" as="geometry"/>
        </mxCell>
      </root>
    </mxGraphModel>
  </diagram>
</mxfile>
